<svg width="14" height="8" viewBox="0 0 14 8" fill="none" xmlns="http://www.w3.org/2000/svg">
<path d="M13.8955 3.72643C13.7705 3.58703 10.7648 0.308594 7.00001 0.308594C3.23527 0.308594 0.229537 3.58703 0.104549 3.72643C-0.0348496 3.88223 -0.0348496 4.11777 0.104549 4.27357C0.229537 4.41297 3.23533 7.69141 7.00001 7.69141C10.7647 7.69141 13.7705 4.41297 13.8955 4.27357C14.0349 4.11777 14.0349 3.88223 13.8955 3.72643ZM7.00001 6.87109C5.41706 6.87109 4.12892 5.58296 4.12892 4C4.12892 2.41704 5.41706 1.12891 7.00001 1.12891C8.58297 1.12891 9.87111 2.41704 9.87111 4C9.87111 5.58296 8.58297 6.87109 7.00001 6.87109Z" fill="#535B73"/>
<path d="M7.41018 3.17969C7.41018 2.76707 7.61501 2.40408 7.92662 2.18082C7.64701 2.03768 7.33512 1.94922 7.00003 1.94922C5.86928 1.94922 4.94924 2.86925 4.94924 4C4.94924 5.13075 5.86928 6.05078 7.00003 6.05078C8.0124 6.05078 8.85032 5.31157 9.01586 4.34568C8.18992 4.6116 7.41018 3.98693 7.41018 3.17969Z" fill="#535B73"/>
</svg>
