<svg width="14" height="14" viewBox="0 0 14 14" fill="none" xmlns="http://www.w3.org/2000/svg">
<path d="M1.11809 7.30526C0.402187 6.61259 -1.99575e-08 5.67313 0 4.69354C1.99575e-08 3.71395 0.402187 2.77448 1.11809 2.08181C1.83399 1.38914 2.80496 1 3.8174 1C4.82983 1 5.80081 1.38914 6.51671 2.08181L7.00378 2.5531L7.49088 2.08181C8.20786 1.3911 9.17843 1.00332 10.1902 1.00332C11.202 1.00332 12.1725 1.3911 12.8895 2.08181C13.6009 2.77678 14 3.71539 14 4.69354C14 5.67169 13.6009 6.61029 12.8895 7.30526L7.00378 13L1.11809 7.30526Z" fill="#475166"/>
</svg>
