<svg width="14" height="14" viewBox="0 0 14 14" fill="none" xmlns="http://www.w3.org/2000/svg">
<path d="M10.1093 3.63554C10.0101 3.47799 9.8139 3.40312 9.62922 3.45257C9.44466 3.50203 9.31691 3.66363 9.31691 3.84767C9.31691 4.3483 8.89296 4.75546 8.37195 4.75546C7.85095 4.75546 7.427 4.3483 7.427 3.84767V0.410153C7.427 0.244275 7.32293 0.094739 7.16338 0.0312929C7.00384 -0.03226 6.82027 0.00277422 6.69819 0.12016C6.65016 0.166196 5.51175 1.26635 4.35832 2.92845C3.6781 3.90855 3.1353 4.88075 2.74504 5.81802C2.25072 7.00545 2 8.14213 2 9.19668C2 11.8452 4.24303 14 7.00006 14C9.75697 14 12 11.8452 12 9.19668C12.0001 7.50127 11.3639 5.63025 10.1093 3.63554ZM9.84892 9.08998C9.84892 9.31653 9.6578 9.50014 9.42198 9.50014C9.18627 9.50014 8.99503 9.31653 8.99503 9.08998V8.32297L6.86919 10.3653C6.78903 10.4422 6.68051 10.4854 6.56722 10.4854C6.45403 10.4854 6.3454 10.4422 6.26535 10.3653L5.27381 9.41266L4.6056 10.0546C4.43882 10.2148 4.16853 10.2148 4.00176 10.0546C3.83498 9.89438 3.83498 9.63472 4.00176 9.4745L4.97195 8.54257C5.13872 8.38246 5.40901 8.38246 5.57579 8.54268L6.56722 9.49522L8.3913 7.74287H7.59278C7.35696 7.74287 7.16583 7.55926 7.16583 7.33272C7.16583 7.10617 7.35696 6.92256 7.59278 6.92256H9.42209C9.6578 6.92256 9.84903 7.10628 9.84903 7.33272V9.08998H9.84892Z" fill="#475166"/>
</svg>
