<svg width="14" height="12" viewBox="0 0 14 12" fill="none" xmlns="http://www.w3.org/2000/svg">
<path d="M8.62446 5.82863C9.45695 5.23319 9.99414 4.30025 9.99414 3.25316C9.99414 1.45937 8.41791 0 6.48047 0C4.54303 0 2.9668 1.45937 2.9668 3.25316C2.9668 4.30023 3.50399 5.23319 4.33647 5.82863C1.86739 6.62767 0 8.82094 0 11.4937C0 11.7733 0.244836 12 0.546875 12H12.4141C12.7161 12 12.9609 11.7733 12.9609 11.4937C12.9609 8.82028 11.0922 6.62722 8.62446 5.82863ZM4.06055 3.25316C4.06055 2.01775 5.14612 1.01266 6.48047 1.01266C7.81482 1.01266 8.90039 2.01775 8.90039 3.25316C8.90039 4.48858 7.81482 5.49367 6.48047 5.49367C5.14612 5.49367 4.06055 4.48858 4.06055 3.25316ZM1.12131 10.9873C1.3962 8.47418 3.69477 6.50633 6.48047 6.50633C9.26617 6.50633 11.5647 8.47418 11.8396 10.9873H1.12131ZM14 3.25316C14 3.53281 13.7552 3.75949 13.4531 3.75949H12.9609V4.21519C12.9609 4.49484 12.7161 4.72152 12.4141 4.72152C12.112 4.72152 11.8672 4.49484 11.8672 4.21519V3.75949H11.375C11.073 3.75949 10.8281 3.53281 10.8281 3.25316C10.8281 2.97352 11.073 2.74684 11.375 2.74684H11.8672V2.29114C11.8672 2.01149 12.112 1.78481 12.4141 1.78481C12.7161 1.78481 12.9609 2.01149 12.9609 2.29114V2.74684H13.4531C13.7552 2.74684 14 2.97352 14 3.25316Z" fill="white"/>
</svg>
